<svg width="19" height="10" viewBox="0 0 19 10" fill="none" xmlns="http://www.w3.org/2000/svg">
<path d="M0.0279162 5.3078C0.0279162 5.31371 0.0279162 5.31816 0.0279162 5.32111C0.0279162 5.32408 0.0248162 5.32556 0.0186124 5.32556C0.0186124 5.33148 0.017061 5.3374 0.0139581 5.34331C0.0108581 5.34923 0.00930667 5.35811 0.00930667 5.36994C0.00930667 5.36994 0.00930667 5.37142 0.00930667 5.37439C0.00930667 5.37734 0.00930667 5.37882 0.00930667 5.37882C0.00310286 5.38474 0 5.39214 0 5.40101C0 5.4099 0 5.4173 0 5.42321C0 5.42321 0 5.42469 0 5.42765C0 5.43061 0 5.43209 0 5.43209C0 5.43209 0 5.43505 0 5.44097C0 5.45872 0.00155147 5.47648 0.00465433 5.49423C0.00775528 5.51199 0.0124086 5.52974 0.0186124 5.54751C0.0248162 5.54751 0.0279162 5.54898 0.0279162 5.55194C0.0279162 5.5549 0.0279162 5.55638 0.0279162 5.55638C0.03412 5.5623 0.0387743 5.56821 0.0418743 5.57413C0.0449772 5.58005 0.0465286 5.58597 0.0465286 5.59189C0.0527324 5.59781 0.0558334 5.60077 0.0558334 5.60077C0.0558334 5.60077 0.0589353 5.60372 0.0651391 5.60965C0.0651391 5.61557 0.06824 5.62001 0.0744428 5.62296C0.0806486 5.62592 0.0837495 5.63036 0.0837495 5.63628C0.0837495 5.63628 0.085301 5.63628 0.088401 5.63628C0.0915038 5.63628 0.0930553 5.63628 0.0930553 5.63628L4.95976 9.93316C5.01558 9.9805 5.08383 10.0027 5.16447 9.99974C5.24512 9.99678 5.31336 9.96867 5.36919 9.9154C5.41882 9.86213 5.44208 9.79703 5.43898 9.72009C5.43588 9.64314 5.40641 9.581 5.35058 9.53365L1.01428 5.70731L18.313 5.70731C18.3936 5.70731 18.4618 5.68067 18.5176 5.62741C18.5735 5.57413 18.6014 5.50903 18.6014 5.43209C18.6014 5.36107 18.5735 5.29892 18.5176 5.24565C18.4618 5.19239 18.3936 5.16575 18.313 5.16575L1.02359 5.16575L5.39711 1.39271C5.45294 1.33943 5.4824 1.2758 5.48551 1.2018C5.48861 1.1278 5.46535 1.06125 5.41572 1.00207C5.3847 0.972433 5.35058 0.950252 5.31336 0.935433C5.27614 0.920706 5.23892 0.913252 5.2017 0.913252C5.16447 0.913252 5.13036 0.919161 5.09934 0.93107C5.06832 0.942888 5.0373 0.960615 5.00628 0.984251L0.0930553 5.23678C0.0930553 5.23678 0.0899524 5.23678 0.0837495 5.23678C0.0837495 5.2427 0.0821981 5.24713 0.0790972 5.2501C0.0759943 5.25305 0.0713419 5.2575 0.0651391 5.26341C0.0651391 5.26933 0.0635876 5.27229 0.0604847 5.27229C0.0573838 5.27229 0.0527324 5.27525 0.0465286 5.28117C0.0465286 5.28709 0.0449772 5.29301 0.0418743 5.29892C0.0387743 5.30484 0.03412 5.3078 0.0279162 5.3078Z" fill="#1C1C28"/>
</svg>
