<svg width="19" height="10" viewBox="0 0 19 10" fill="none" xmlns="http://www.w3.org/2000/svg">
<path d="M18.9721 4.6922C18.9721 4.68629 18.9721 4.68184 18.9721 4.67889C18.9721 4.67592 18.9752 4.67444 18.9814 4.67444C18.9814 4.66852 18.9829 4.6626 18.986 4.65669C18.9891 4.65077 18.9907 4.64189 18.9907 4.63006C18.9907 4.63006 18.9907 4.62858 18.9907 4.62561C18.9907 4.62266 18.9907 4.62118 18.9907 4.62118C18.9969 4.61526 19 4.60786 19 4.59899C19 4.5901 19 4.5827 19 4.57679C19 4.57679 19 4.57531 19 4.57235C19 4.56939 19 4.56791 19 4.56791C19 4.56791 19 4.56495 19 4.55903C19 4.54128 18.9984 4.52352 18.9953 4.50577C18.9922 4.48801 18.9876 4.47026 18.9814 4.45249C18.9752 4.45249 18.9721 4.45102 18.9721 4.44806C18.9721 4.4451 18.9721 4.44362 18.9721 4.44362C18.9659 4.4377 18.9612 4.43179 18.9581 4.42587C18.955 4.41995 18.9535 4.41403 18.9535 4.40811C18.9473 4.40219 18.9442 4.39923 18.9442 4.39923C18.9442 4.39923 18.9411 4.39628 18.9349 4.39035C18.9349 4.38443 18.9318 4.37999 18.9256 4.37704C18.9194 4.37408 18.9163 4.36964 18.9163 4.36372C18.9163 4.36372 18.9147 4.36372 18.9116 4.36372C18.9085 4.36372 18.9069 4.36372 18.9069 4.36372L14.0402 0.0668447C13.9844 0.0194965 13.9162 -0.00269801 13.8355 0.000261082C13.7549 0.00322017 13.6866 0.0313338 13.6308 0.0846011C13.5812 0.137867 13.5579 0.202972 13.561 0.279913C13.5641 0.356858 13.5936 0.419004 13.6494 0.466349L17.9857 4.29269L0.687016 4.29269C0.606445 4.29269 0.53816 4.31933 0.482351 4.37259C0.42654 4.42587 0.398636 4.49097 0.398636 4.56791C0.398636 4.63893 0.42654 4.70108 0.482351 4.75435C0.53816 4.80761 0.606445 4.83425 0.687016 4.83425L17.9764 4.83425L13.6029 8.60729C13.5471 8.66057 13.5176 8.7242 13.5145 8.7982C13.5114 8.8722 13.5347 8.93875 13.5843 8.99793C13.6153 9.02757 13.6494 9.04975 13.6866 9.06457C13.7239 9.07929 13.7611 9.08675 13.7983 9.08675C13.8355 9.08675 13.8696 9.08084 13.9007 9.06893C13.9317 9.05711 13.9627 9.03938 13.9937 9.01575L18.9069 4.76322C18.9069 4.76322 18.91 4.76322 18.9163 4.76322C18.9163 4.7573 18.9178 4.75287 18.9209 4.7499C18.924 4.74695 18.9287 4.7425 18.9349 4.73659C18.9349 4.73067 18.9364 4.72771 18.9395 4.72771C18.9426 4.72771 18.9473 4.72475 18.9535 4.71883C18.9535 4.71291 18.955 4.70699 18.9581 4.70108C18.9612 4.69516 18.9659 4.6922 18.9721 4.6922Z" fill="#1C1C28"/>
</svg>
