<svg width="21" height="21" viewBox="0 0 21 21" fill="none" xmlns="http://www.w3.org/2000/svg">
<path d="M15.001 15.001C13.593 16.407 11.323 17.334 9.167 17.334C7.55172 17.334 5.97272 16.855 4.62966 15.9576C3.28661 15.0602 2.23982 13.7847 1.62168 12.2924C1.00354 10.8001 0.841805 9.15794 1.15693 7.5737C1.47206 5.98946 2.24989 4.53424 3.39206 3.39206C4.53424 2.24989 5.98946 1.47206 7.5737 1.15693C9.15794 0.841805 10.8001 1.00354 12.2924 1.62168C13.7847 2.23982 15.0602 3.28661 15.9576 4.62966C16.855 5.97272 17.334 7.55172 17.334 9.167C17.334 11.142 16.363 13.661 15.001 15.001ZM15.001 15.001L19.667 19.667" stroke="#888888" stroke-linecap="round" stroke-linejoin="round"/>
</svg>
