
<svg width="21" height="20" viewBox="0 0 21 20" fill="none" xmlns="http://www.w3.org/2000/svg">
<path d="M19.5 9.9994H7.145M2.784 9.9994H1M2.784 9.9994C2.784 9.42123 3.01368 8.86674 3.42251 8.45791C3.83134 8.04908 4.38583 7.8194 4.964 7.8194C5.54217 7.8194 6.09666 8.04908 6.50549 8.45791C6.91432 8.86674 7.144 9.42123 7.144 9.9994C7.144 10.5776 6.91432 11.1321 6.50549 11.5409C6.09666 11.9497 5.54217 12.1794 4.964 12.1794C4.38583 12.1794 3.83134 11.9497 3.42251 11.5409C3.01368 11.1321 2.784 10.5776 2.784 9.9994ZM19.5 16.6064H13.752M13.752 16.6064C13.752 17.1847 13.5218 17.7398 13.1128 18.1487C12.7039 18.5577 12.1493 18.7874 11.571 18.7874C10.9928 18.7874 10.4383 18.5567 10.0295 18.1479C9.62068 17.7391 9.391 17.1846 9.391 16.6064M13.752 16.6064C13.752 16.0281 13.5218 15.474 13.1128 15.0651C12.7039 14.6561 12.1493 14.4264 11.571 14.4264C10.9928 14.4264 10.4383 14.6561 10.0295 15.0649C9.62068 15.4737 9.391 16.0282 9.391 16.6064M9.391 16.6064H1M19.5 3.3924H16.395M12.034 3.3924H1M12.034 3.3924C12.034 2.81423 12.2637 2.25974 12.6725 1.85091C13.0813 1.44208 13.6358 1.2124 14.214 1.2124C14.5003 1.2124 14.7838 1.26879 15.0483 1.37835C15.3127 1.4879 15.5531 1.64848 15.7555 1.85091C15.9579 2.05334 16.1185 2.29366 16.2281 2.55815C16.3376 2.82264 16.394 3.10612 16.394 3.3924C16.394 3.67868 16.3376 3.96216 16.2281 4.22665C16.1185 4.49114 15.9579 4.73146 15.7555 4.93389C15.5531 5.13633 15.3127 5.2969 15.0483 5.40646C14.7838 5.51602 14.5003 5.5724 14.214 5.5724C13.6358 5.5724 13.0813 5.34272 12.6725 4.93389C12.2637 4.52507 12.034 3.97057 12.034 3.3924Z" stroke="black" stroke-width="1.5" stroke-miterlimit="10" stroke-linecap="round"/>
</svg>
